Coordinates
version=1
nRows=4
nColumns=63
inDegrees=yes

Units are S.I. units (second, meters, Newtons, ...)
If the header above contains a line with 'inDegrees', this indicates whether rotational values are in degrees (yes) or radians (no).

endheader
time	pelvis_tilt	pelvis_list	pelvis_rotation	pelvis_tx	pelvis_ty	pelvis_tz	hip_flexion_r	hip_adduction_r	hip_rotation_r	knee_angle_r	knee_angle_r_beta	ankle_angle_r	subtalar_angle_r	mtp_angle_r	hip_flexion_l	hip_adduction_l	hip_rotation_l	knee_angle_l	knee_angle_l_beta	ankle_angle_l	subtalar_angle_l	mtp_angle_l	L5_S1_Flex_Ext	L5_S1_Lat_Bending	L5_S1_axial_rotation	L4_L5_Flex_Ext	L4_L5_Lat_Bending	L4_L5_axial_rotation	L3_L4_Flex_Ext	L3_L4_Lat_Bending	L3_L4_axial_rotation	L2_L3_Flex_Ext	L2_L3_Lat_Bending	L2_L3_axial_rotation	L1_L2_Flex_Ext	L1_L2_Lat_Bending	L1_L2_axial_rotation	L1_T12_Flex_Ext	L1_T12_Lat_Bending	L1_T12_axial_rotation	Abs_r3	Abs_r2	Abs_r1	Abs_t1	Abs_t2	neck_flexion	neck_bending	neck_rotation	arm_flex_r	arm_add_r	arm_rot_r	elbow_flex_r	pro_sup_r	wrist_flex_r	wrist_dev_r	arm_flex_l	arm_add_l	arm_rot_l	elbow_flex_l	pro_sup_l	wrist_flex_l	wrist_dev_l
      1.47457627	      0.78686184	      0.66828900	     89.45377494	      0.15451211	      0.65744501	      0.79563622	      0.27460722	     -1.87030299	      5.65674148	      5.07659086	      0.08860323	     24.05826177	      0.93485630	      0.00000000	     -0.89840083	      2.40394820	      2.12757986	      2.23619184	      0.03902891	     20.03674977	     -9.82737029	      0.00000000	      0.38276234	     -1.32423104	     -1.42112870	      0.71082794	     -1.76122729	     -1.50994924	      0.62884025	     -3.21973536	     -1.50994924	      0.43745908	     -3.21973536	     -1.24348761	      0.35543311	     -2.70037194	     -1.15466707	      0.21871040	     -2.05123389	     -1.06584653	      2.73403312	    -14.97996641	     -7.90389150	      0.00000000	      0.00000000	     28.35355472	     -5.49376584	    -39.98746728	     68.17110418	    -12.11482607	     -6.70992767	    136.13234733	     89.41410996	    -19.12750935	     -3.82593714	     16.47957780	    -13.10003768	    193.76041754	      1.53907521	      7.76883808	     -6.51013398	    -11.62046068
      1.49152542	      0.80101900	      0.49907609	     89.78306952	      0.15427500	      0.65758997	      0.79490202	      0.17728381	     -1.86660393	      5.20209182	      4.78189132	      0.08345975	     23.53152279	      0.93626751	      0.00000000	     -0.79529216	      2.35575242	      2.86016882	      1.96837377	      0.03435460	     20.21468740	     -9.70256952	      0.00000000	      0.39641872	     -1.33239941	     -1.44927346	      0.73618921	     -1.77209122	     -1.53985305	      0.65127632	     -3.23959594	     -1.53985305	      0.45306696	     -3.23959594	     -1.26811428	      0.36811443	     -2.71702889	     -1.17753469	      0.22651366	     -2.06388669	     -1.08695510	      2.83157931	    -15.07236865	     -8.06042421	      0.00000000	      0.00000000	     28.36194882	     -5.52432600	    -40.16979307	     68.25872242	    -12.45460681	     -6.74062347	    136.31006214	     89.41555188	    -18.75654472	     -4.60986848	     16.82366805	    -12.88981076	    195.43322354	      1.29768344	      9.46034995	     -6.02397404	    -10.97381540
      1.50847458	      0.72881708	      0.45132328	     89.77098762	      0.15435197	      0.65798305	      0.79442201	      0.10216662	     -1.97758867	      4.89403572	      4.67069541	      0.08151901	     23.07866850	      1.13316797	      0.00000000	     -0.79692460	      2.42668166	      3.42096849	      1.76107730	      0.03073660	     20.24814928	     -9.96156618	      0.00000000	      0.39342682	     -1.34969838	     -1.46291340	      0.73063295	     -1.79509884	     -1.55434549	      0.64636093	     -3.28165664	     -1.55434549	      0.44964752	     -3.28165664	     -1.28004922	      0.36533615	     -2.75230493	     -1.18861714	      0.22480409	     -2.09068279	     -1.09718505	      2.81020846	    -15.26805800	     -8.13628545	      0.00000000	      0.00000000	     28.37776650	     -5.17028040	    -40.11679201	     68.24804225	    -12.39817638	     -6.65250117	    136.42447791	     89.42667286	    -18.81587457	     -6.01236236	     17.08526693	    -12.82374808	    195.80376605	      1.22179026	      9.82866703	     -5.65128898	    -10.54305886
      1.52542373	      0.69739398	      0.40437259	     89.66724016	      0.15464046	      0.65831740	      0.79394532	      0.04496995	     -2.05148301	      4.57748982	      4.55403233	      0.07948286	     22.73817064	      1.54457416	      0.00000000	     -0.81893811	      2.45331051	      4.31934495	      1.54598576	      0.02698254	     20.04089353	    -10.91663837	      0.00000000	      0.39844029	     -1.35996380	     -1.49416235	      0.73994347	     -1.80875185	     -1.58754749	      0.65459756	     -3.30661598	     -1.58754749	      0.45537741	     -3.30661598	     -1.30739205	      0.36999166	     -2.77323818	     -1.21400691	      0.22766878	     -2.10658393	     -1.12062176	      2.84601918	    -15.38418250	     -8.31008273	      0.00000000	      0.00000000	     28.38886182	     -4.66703493	    -39.50048217	     68.13001552	    -12.21971690	     -6.05038477	    136.32070678	     89.43566451	    -20.24310068	     -8.49627932	     17.23370811	    -12.83216595	    195.52365697	      1.20581181	      9.54561711	     -5.09815811	    -10.28150435
